<!-- Exported by Character Map UWP -->
<svg height="100%" viewBox="64 64 832 960" width="100%" xmlns="http://www.w3.org/2000/svg" xmlns:xlink="http://www.w3.org/1999/xlink">
  <path d="M64,992L64,96C64,87.3334 67.1667,79.8334 73.5,73.5C79.8333,67.1667 87.3333,64.0001 96,64L864,64C872.667,64.0001 880.167,67.1667 886.5,73.5C892.833,79.8334 896,87.3334 896,96C896,102.333 894.167,108.333 890.5,114L710.5,384L890.5,654.5C894.167,659.833 896,665.667 896,672C896,680.667 892.833,688.167 886.5,694.5C880.167,700.833 872.667,704 864,704L128,704L128,992C128,1000.67 124.833,1008.17 118.5,1014.5C112.167,1020.83 104.667,1024 96,1024C87.3333,1024 79.8333,1020.83 73.5,1014.5C67.1667,1008.17 64,1000.67 64,992ZM128,640L804,640L645.5,402C641.833,396.333 640,390.333 640,384C640,378 641.833,372.167 645.5,366.5L804,128L128,128Z" fill="#FFFFFF" fill-opacity="1">
  </path>
</svg>