<!-- Exported by Character Map UWP -->
<svg height="100%" viewBox="128 3 768 1022" width="100%" xmlns="http://www.w3.org/2000/svg" xmlns:xlink="http://www.w3.org/1999/xlink">
  <path d="M896,509.5L896,898.5C896,915.167 892.583,931.083 885.75,946.25C878.917,961.417 869.75,974.75 858.25,986.25C846.75,997.75 833.417,1006.92 818.25,1013.75C803.083,1020.58 787.167,1024 770.5,1024L253.5,1024C236.833,1024 220.917,1020.58 205.75,1013.75C190.583,1006.92 177.25,997.75 165.75,986.25C154.25,974.75 145.083,961.417 138.25,946.25C131.417,931.083 128,915.167 128,898.5L128,509.5C128,493.167 131.333,477.5 138,462.5C144.667,447.5 153.667,434.167 165,422.5C176.333,410.833 189.5,401.5 204.5,394.5C219.5,387.5 235.167,384 251.5,384L256,384L256,256C256,220 262.667,186.583 276,155.75C289.333,124.917 307.5,98.1667 330.5,75.5C353.5,52.8334 380.583,35.0001 411.75,22C442.917,9.00006 476.333,2.50006 512,2.5C537.333,2.50006 562,6.00006 586,13C610,20.0001 632.417,30.0834 653.25,43.25C674.083,56.4167 692.583,72.5 708.75,91.5C724.917,110.5 737.833,131.833 747.5,155.5C749.167,159.833 750,164 750,168C750,177.333 747.083,185 741.25,191C735.417,197 727.833,200 718.5,200C710.833,200 704.833,198.167 700.5,194.5C696.167,190.833 692.167,186.167 688.5,180.5C681.833,169.833 675.75,159.417 670.25,149.25C664.75,139.083 657.333,129.333 648,120C630,101.667 609.167,88.0001 585.5,79C561.833,70.0001 537.333,65.5001 512,65.5C485.333,65.5001 460.333,70.4167 437,80.25C413.667,90.0834 393.333,103.5 376,120.5C358.667,137.5 345,157.583 335,180.75C325,203.917 320,229 320,256L320,384L770.5,384C787.167,384 803.083,387.417 818.25,394.25C833.417,401.083 846.75,410.25 858.25,421.75C869.75,433.25 878.917,446.583 885.75,461.75C892.583,476.917 896,492.833 896,509.5ZM832,512C832,503.333 830.333,495.083 827,487.25C823.667,479.417 819.083,472.583 813.25,466.75C807.417,460.917 800.583,456.333 792.75,453C784.917,449.667 776.667,448 768,448L256,448C247,448 238.667,449.667 231,453C223.333,456.333 216.583,460.917 210.75,466.75C204.917,472.583 200.333,479.333 197,487C193.667,494.667 192,503 192,512L192,896C192,905 193.667,913.417 197,921.25C200.333,929.083 204.833,935.833 210.5,941.5C216.167,947.167 222.917,951.667 230.75,955C238.583,958.333 247,960 256,960L768,960C777,960 785.333,958.333 793,955C800.667,951.667 807.417,947.083 813.25,941.25C819.083,935.417 823.667,928.667 827,921C830.333,913.333 832,905 832,896ZM576,704C576,713 574.333,721.333 571,729C567.667,736.667 563.083,743.417 557.25,749.25C551.417,755.083 544.667,759.667 537,763C529.333,766.333 521,768 512,768C503,768 494.583,766.333 486.75,763C478.917,759.667 472.167,755.167 466.5,749.5C460.833,743.833 456.333,737.083 453,729.25C449.667,721.417 448,713 448,704C448,695 449.667,686.667 453,679C456.333,671.333 460.917,664.583 466.75,658.75C472.583,652.917 479.333,648.333 487,645C494.667,641.667 503,640 512,640C520.667,640 528.917,641.667 536.75,645C544.583,648.333 551.417,652.917 557.25,658.75C563.083,664.583 567.667,671.417 571,679.25C574.333,687.083 576,695.333 576,704Z" fill="#FFFFFF" fill-opacity="1">
  </path>
</svg>