<!-- Exported by Character Map UWP -->
<svg height="100%" viewBox="128 256 768 544" width="100%" xmlns="http://www.w3.org/2000/svg" xmlns:xlink="http://www.w3.org/1999/xlink">
  <path d="M128,544C128,535.333 131.167,527.833 137.5,521.5C143.833,515.167 151.333,512 160,512C168.667,512 176.167,515.167 182.5,521.5L384,722.5L841.5,265.5C847.833,259.167 855.333,256 864,256C872.667,256 880.167,259.167 886.5,265.5C892.833,271.833 896,279.333 896,288C896,296.667 892.833,304.167 886.5,310.5L406.5,790.5C400.167,796.833 392.667,800 384,800C375.333,800 367.833,796.833 361.5,790.5L137.5,566.5C131.167,560.167 128,552.667 128,544Z" fill="#FFFFFF" fill-opacity="1">
  </path>
</svg>