<!-- Exported by Character Map UWP -->
<svg height="100%" viewBox="0 113 992 784" width="100%" xmlns="http://www.w3.org/2000/svg" xmlns:xlink="http://www.w3.org/1999/xlink">
  <path d="M512,448L109,448L326,665C332.333,671.333 335.5,678.833 335.5,687.5C335.5,696.167 332.333,703.667 326,710C319.667,716.333 312.167,719.5 303.5,719.5C294.833,719.5 287.333,716.333 281,710L9.5,438.5C3.16667,432.167 0,424.667 0,416C0,407.333 3.16667,399.833 9.5,393.5L281,122C287.333,115.667 294.833,112.5 303.5,112.5C312.167,112.5 319.667,115.667 326,122C332.333,128.333 335.5,135.833 335.5,144.5C335.5,153.167 332.333,160.667 326,167L109,384L512,384C556,384 598.5,389.75 639.5,401.25C680.5,412.75 718.75,428.917 754.25,449.75C789.75,470.583 822.083,495.583 851.25,524.75C880.417,553.917 905.417,586.25 926.25,621.75C947.083,657.25 963.25,695.5 974.75,736.5C986.25,777.5 992,820 992,864C992,872.667 988.833,880.167 982.5,886.5C976.167,892.833 968.667,896 960,896C951.333,896 943.833,892.833 937.5,886.5C931.167,880.167 928,872.667 928,864C928,828.333 923.583,793.083 914.75,758.25C905.917,723.417 892.5,690.5 874.5,659.5C855.5,626.833 833.083,597.417 807.25,571.25C781.417,545.083 753,522.917 722,504.75C691,486.583 657.75,472.583 622.25,462.75C586.75,452.917 550,448 512,448Z" fill="#FFFFFF" fill-opacity="1">
  </path>
</svg>