<!-- Exported by Character Map UWP -->
<svg height="100%" viewBox="0 0 1024 1024" width="100%" xmlns="http://www.w3.org/2000/svg" xmlns:xlink="http://www.w3.org/1999/xlink">
  <path d="M384,192C339.667,192 298.083,200.333 259.25,217C220.417,233.667 186.5,256.5 157.5,285.5C128.5,314.5 105.667,348.417 89,387.25C72.3333,426.083 64,467.667 64,512C64,539 67.5,566.083 74.5,593.25C81.5,620.417 91.8333,645.833 105.5,669.5C107.5,673.167 110.083,677.167 113.25,681.5C116.417,685.833 119.5,690.333 122.5,695C125.5,699.667 128.083,704.333 130.25,709C132.417,713.667 133.5,718 133.5,722C133.5,730.667 130.333,738.167 124,744.5C117.667,750.833 110.167,754 101.5,754C95.8333,754 91.0833,752.833 87.25,750.5C83.4167,748.167 79.6667,745 76,741C63.6667,726.667 52.75,710.167 43.25,691.5C33.75,672.833 25.8333,653.333 19.5,633C13.1667,612.667 8.33333,592.083 5,571.25C1.66667,550.417 0,530.667 0,512C0,477 4.58333,443.167 13.75,410.5C22.9167,377.833 35.8333,347.25 52.5,318.75C69.1667,290.25 89.1667,264.333 112.5,241C135.833,217.667 161.667,197.583 190,180.75C218.333,163.917 248.917,150.917 281.75,141.75C314.583,132.583 348.667,128 384,128L723,128L649.5,54.5C643.167,48.1667 640,40.6667 640,32C640,23.3334 643.167,15.8334 649.5,9.5C655.833,3.16669 663.333,0 672,0C680.667,0 688.167,3.16669 694.5,9.5L822.5,137.5C828.833,143.833 832,151.333 832,160C832,168.667 828.833,176.167 822.5,182.5L694.5,310.5C688.167,316.833 680.667,320 672,320C663.333,320 655.833,316.833 649.5,310.5C643.167,304.167 640,296.667 640,288C640,279.333 643.167,271.833 649.5,265.5L723,192ZM1024,512C1024,547.333 1019.42,581.25 1010.25,613.75C1001.08,646.25 988.167,676.75 971.5,705.25C954.833,733.75 934.833,759.667 911.5,783C888.167,806.333 862.333,826.417 834,843.25C805.667,860.083 775.083,873.083 742.25,882.25C709.417,891.417 675.333,896 640,896L301.5,896L374.5,969.5C380.833,975.833 384,983.333 384,992C384,1000.67 380.833,1008.17 374.5,1014.5C368.167,1020.83 360.667,1024 352,1024C343.333,1024 335.833,1020.83 329.5,1014.5L201.5,886.5C195.167,880.167 192,872.667 192,864C192,855.333 195.167,847.833 201.5,841.5L329.5,713.5C335.833,707.167 343.333,704 352,704C360.667,704 368.167,707.167 374.5,713.5C380.833,719.833 384,727.333 384,736C384,744.667 380.833,752.167 374.5,758.5L301.5,832L640,832C684.333,832 725.917,823.667 764.75,807C803.583,790.333 837.5,767.5 866.5,738.5C895.5,709.5 918.333,675.583 935,636.75C951.667,597.917 960,556.333 960,512C960,493 958.667,475.333 956,459C953.333,442.667 949.333,426.833 944,411.5C938.667,396.167 932.083,381.167 924.25,366.5C916.417,351.833 907.333,336.667 897,321C894.667,317.333 893,314.333 892,312C891,309.667 890.5,306.333 890.5,302C890.5,293.333 893.583,285.75 899.75,279.25C905.917,272.75 913.5,269.5 922.5,269.5C928.167,269.5 932.917,270.667 936.75,273C940.583,275.333 944.333,278.5 948,282.5C960.333,296.833 971.25,313.333 980.75,332C990.25,350.667 998.167,370.25 1004.5,390.75C1010.83,411.25 1015.67,431.917 1019,452.75C1022.33,473.583 1024,493.333 1024,512Z" fill="#FFFFFF" fill-opacity="1">
  </path>
</svg>